<svg width="1792" height="1169" fill="none" xmlns="http://www.w3.org/2000/svg"><path d="M390 234a39 39 0 000 78h233a39 39 0 000-78H390zM351 468c0-22 17-39 39-39h233a39 39 0 010 78H390c-22 0-39-18-39-39zM390 623a39 39 0 000 78h233a39 39 0 000-78H390zM351 857c0-21 17-39 39-39h233a39 39 0 010 78H390c-22 0-39-17-39-39z" fill="#989EA0"/><path fill-rule="evenodd" clip-rule="evenodd" d="M857 273V117C857 52 805 0 740 0H273c-65 0-117 52-117 117v974H39a39 39 0 100 78h1714a39 39 0 000-78h-156v-89a203 203 0 00113-322 158 158 0 00-152-196 158 158 0 00-152 197 203 203 0 00113 321v89h-233V390c0-65-53-117-117-117H857zM740 78H273c-22 0-39 17-39 39v974h545V117c0-22-17-39-39-39zm117 273v740h351V818H974a39 39 0 010-78h234V623H974a39 39 0 010-77h234V390c0-22-18-39-39-39H857zm701 212c-42 0-78 35-78 82 0 11 2 22 6 31l9 24-18 18c-22 22-36 53-36 88 0 69 54 122 117 122 64 0 117-53 117-122 0-35-14-66-36-88l-18-18 9-24c4-9 6-20 6-31 0-47-36-82-78-82z" fill="#989EA0"/></svg>